<svg width="248" height="405" viewBox="0 0 248 405" fill="none" xmlns="http://www.w3.org/2000/svg">
<path d="M157.313 117.116C157.313 120.307 154.741 122.517 149.595 123.745C144.694 124.972 136.73 125.709 125.704 125.954C123.253 138.722 120.313 150.139 116.882 160.205C113.697 170.026 108.919 180.707 102.548 192.246L137.833 246.385C136.363 248.84 133.422 250.067 129.012 250.067L123.131 249.699C111.859 235.704 101.69 222.323 92.6238 209.556C82.3323 226.252 73.1434 238.282 65.0572 245.648C56.971 252.768 47.1695 256.328 35.6528 256.328C25.8514 256.328 17.3976 253.137 10.2915 246.753C3.43051 240.369 0 231.776 0 220.973C0 209.924 2.32785 199.244 6.98354 188.932C11.6392 178.374 18.5003 165.484 27.5666 150.261C33.6925 139.704 38.2257 131.479 41.1661 125.586C44.3516 119.448 46.802 113.433 48.5172 107.54C48.7623 89.8622 49.3749 71.9389 50.355 53.77C51.0901 39.0385 51.4577 26.885 51.4577 17.3095C51.4577 5.76985 56.3584 0 66.1599 0C74.4911 0 81.1071 3.80563 86.0078 11.4169C90.9085 18.7827 93.3589 28.1126 93.3589 39.4068C93.3589 50.4554 91.0311 62.4862 86.3754 75.499C81.9647 88.2663 74.9812 103.243 65.4247 120.43C66.895 127.55 69.8354 135.653 74.2461 144.737C78.9017 153.576 85.0277 164.256 92.6238 176.778C105.856 150.016 111.859 127.919 110.634 110.486C110.634 107.786 114.8 106.435 123.131 106.435L141.141 106.803C147.512 106.803 151.8 107.417 154.005 108.645C156.211 109.627 157.313 112.451 157.313 117.116ZM38.2257 237.914C46.3119 237.914 53.7855 234.722 60.6465 228.338C67.7526 221.709 75.2262 210.906 83.0674 195.929C71.7957 178.988 61.2591 162.169 51.4577 145.474C39.4509 166.098 31.2422 181.32 26.8315 191.141C22.4208 200.962 20.2155 210.906 20.2155 220.973C20.2155 226.62 21.8082 230.917 24.9937 233.863C28.1792 236.564 32.5899 237.914 38.2257 237.914Z" fill="#26262C"/>
<path d="M199.881 193.922C199.881 197.113 197.308 199.323 192.162 200.551C187.261 201.778 179.298 202.515 168.271 202.76C165.82 215.528 162.88 226.945 159.45 237.011C156.264 246.832 151.486 257.513 145.115 269.052L180.4 323.191C178.93 325.646 175.99 326.873 171.579 326.873L165.698 326.505C154.426 312.51 144.257 299.129 135.191 286.362C124.899 303.057 115.711 315.088 107.624 322.454C99.5381 329.574 89.7367 333.134 78.22 333.134C68.4185 333.134 59.9647 329.943 52.8587 323.559C45.9977 317.175 42.5671 308.582 42.5671 297.779C42.5671 286.73 44.895 276.05 49.5507 265.738C54.2064 255.18 61.0674 242.29 70.1337 227.067C76.2597 216.51 80.7928 208.285 83.7333 202.392C86.9187 196.254 89.3691 190.239 91.0844 184.346C91.3294 166.668 91.942 148.745 92.9221 130.576C93.6572 115.844 94.0248 103.691 94.0248 94.1155C94.0248 82.5758 98.9255 76.806 108.727 76.806C117.058 76.806 123.674 80.6116 128.575 88.2229C133.476 95.5886 135.926 104.919 135.926 116.213C135.926 127.261 133.598 139.292 128.942 152.305C124.532 165.072 117.548 180.049 107.992 197.236C109.462 204.356 112.403 212.459 116.813 221.543C121.469 230.382 127.595 241.062 135.191 253.584C148.423 226.822 154.426 204.725 153.201 187.292C153.201 184.592 157.367 183.241 165.698 183.241L183.708 183.609C190.079 183.609 194.367 184.223 196.573 185.451C198.778 186.433 199.881 189.257 199.881 193.922ZM80.7928 314.72C88.879 314.72 96.3526 311.528 103.214 305.144C110.32 298.515 117.793 287.712 125.635 272.735C114.363 255.794 103.826 238.975 94.0248 222.28C82.018 242.904 73.8093 258.126 69.3986 267.947C64.988 277.768 62.7827 287.712 62.7827 297.779C62.7827 303.426 64.3754 307.722 67.5609 310.669C70.7463 313.37 75.157 314.72 80.7928 314.72Z" fill="#3B3B44"/>
<path d="M248 265.175C248 268.367 245.427 270.577 240.281 271.804C235.381 273.032 227.417 273.769 216.39 274.014C213.94 286.781 210.999 298.198 207.569 308.265C204.384 318.086 199.605 328.766 193.234 340.306L228.52 394.444C227.049 396.9 224.109 398.127 219.698 398.127L213.817 397.759C202.546 383.764 192.377 370.383 183.31 357.616C173.019 374.311 163.83 386.342 155.744 393.708C147.658 400.828 137.856 404.388 126.339 404.388C116.538 404.388 108.084 401.196 100.978 394.813C94.1171 388.429 90.6866 379.836 90.6866 369.032C90.6866 357.984 93.0144 347.303 97.6701 336.991C102.326 326.434 109.187 313.544 118.253 298.321C124.379 287.764 128.912 279.538 131.853 273.646C135.038 267.508 137.489 261.492 139.204 255.6C139.449 237.922 140.061 219.999 141.042 201.83C141.777 187.098 142.144 174.945 142.144 165.369C142.144 153.83 147.045 148.06 156.846 148.06C165.178 148.06 171.794 151.865 176.694 159.477C181.595 166.842 184.045 176.172 184.045 187.466C184.045 198.515 181.718 210.546 177.062 223.559C172.651 236.326 165.668 251.303 156.111 268.49C157.582 275.61 160.522 283.712 164.933 292.797C169.588 301.636 175.714 312.316 183.31 324.838C196.542 298.076 202.546 275.978 201.321 258.546C201.321 255.845 205.486 254.495 213.817 254.495L231.828 254.863C238.199 254.863 242.487 255.477 244.692 256.705C246.897 257.687 248 260.51 248 265.175ZM128.912 385.974C136.998 385.974 144.472 382.782 151.333 376.398C158.439 369.769 165.913 358.966 173.754 343.989C162.482 327.048 151.946 310.229 142.144 293.533C130.137 314.158 121.929 329.38 117.518 339.201C113.107 349.022 110.902 358.966 110.902 369.032C110.902 374.68 112.495 378.976 115.68 381.923C118.866 384.623 123.276 385.974 128.912 385.974Z" fill="#26262C"/>
</svg>
