<svg width="110" height="110" viewBox="0 0 110 110" fill="none" xmlns="http://www.w3.org/2000/svg">
<g clip-path="url(#clip0)">
<path d="M39.0168 2.42601C42.5447 1.81851 48.2761 0.795555 51.2788 3.4136C55.0594 6.72595 57.9429 9.95849 59.8642 14.6089C62.7442 21.5795 63.6713 31.9253 61.1812 38.97C60.1405 41.9139 58.9749 44.7425 57.4598 47.3999C55.7901 50.3286 53.5867 52.29 51.1265 54.4697C49.2151 56.1632 46.9976 56.9576 44.6426 57.776C43.7997 58.0689 42.8151 58.6824 43.0716 59.7141C43.3747 60.9336 44.4335 62.2806 45.5148 62.9619C46.3358 63.4792 47.2248 63.8516 48.038 64.3802C49.3448 65.2297 50.7945 66.0091 52.1758 66.7436C54.042 67.7359 56.376 68.8254 57.8486 70.3956C59.6009 72.2642 61.347 74.971 62.1566 77.3759C62.3643 77.9928 63.0327 78.3245 63.6496 78.1169C64.2665 77.9092 64.5983 77.2408 64.3906 76.6239C63.4195 73.7395 61.6521 71.0055 59.5679 68.7832C57.9216 67.0276 55.3689 65.7718 53.2825 64.6624C50.9754 63.4356 46.869 62.3431 45.8092 59.8764C45.929 59.8403 46.0492 59.8054 46.1694 59.7707C48.5603 59.0961 50.8408 57.8698 52.702 56.2232C55.3523 53.8787 57.7143 51.7127 59.5076 48.5674C61.1192 45.7406 62.3388 42.7676 63.4035 39.7556C66.0824 32.1772 65.1428 21.2121 62.0428 13.7088C59.995 8.75232 56.9275 5.21694 52.8926 1.69347C49.0889 -1.62639 43.1548 -0.67839 38.6168 0.103057C36.6511 0.441563 34.6458 1.64691 33.2054 2.46192C32.6389 2.78246 32.4395 3.50155 32.76 4.06806C33.0805 4.63458 33.7996 4.83398 34.3662 4.51345C35.8247 3.68712 37.3387 2.71499 39.0168 2.42601Z" fill="#FAFA19"/>
<path d="M80.8555 27.3583C82.1236 26.3957 84.067 25.5356 85.5094 25.5356C88.1738 25.5356 90.6894 26.0951 93.539 26.4123C96.3668 26.7272 98.9696 31.456 99.8481 33.7947C100.956 36.7452 102.16 39.0428 102.486 42.3082C102.598 43.4291 102.515 44.7262 102.291 45.8481C101.725 48.6841 101.58 51.3827 99.7782 53.8256C96.34 58.4866 92.8441 62.0833 87.5544 64.7334C86.9422 65.0401 86.3976 65.5215 86.4554 66.2615C86.5401 67.3453 87.1721 68.7201 87.7743 69.5917C90.8477 74.04 95.8442 75.5514 98.4959 80.8654C99.3514 82.5798 99.9049 84.756 100.306 86.7656C101.213 91.3116 100.307 96.3348 99.3512 100.829C99.2187 101.451 98.7654 102.033 99.0848 102.671C99.3764 103.253 100.085 103.488 100.666 103.196C100.943 103.058 101.149 102.823 101.286 102.549C102.536 97.8213 103.514 90.7939 102.618 86.3042C102.208 84.2533 101.607 81.8209 100.605 79.813C99.8889 78.3779 99.0106 77.0348 98.1314 75.6964C96.8571 73.7585 95.1989 72.202 93.2072 71.018C91.7229 70.1358 90.514 69.4102 89.7136 68.2518C89.3017 67.6557 89.0108 67.0933 88.9605 66.663C92.3278 64.9314 94.9331 63.0345 97.6353 60.4405C99.2871 58.8557 100.344 57.0289 101.675 55.2248C103.697 52.4841 103.966 49.4988 104.602 46.3095C105.56 41.5116 103.674 37.2641 102.021 32.8749C100.794 29.6127 97.5959 24.4923 93.7998 24.0696C91.2835 23.7895 88.333 23.1785 85.5094 23.1785C83.3665 23.1785 80.9304 24.3421 79.4303 25.4808C78.9118 25.8744 78.8106 26.6137 79.2041 27.1321C79.5977 27.6506 80.337 27.7519 80.8555 27.3583Z" fill="#FAFA19"/>
<path d="M18.0714 33C18.3651 15.9107 33.6144 4.71429 43.8937 4.71429C56.5226 7.95537 61.8091 19.4464 60.6343 34.4732C59.6945 46.4946 51.4319 53.625 47.4181 55.6875C42.719 58.6339 40.0757 58.0446 40.0757 58.0446C40.0757 58.0446 38.3136 63.0536 53.292 71.0089C58.6802 73.8707 61.5154 78.8661 61.8091 80.4375C64.1587 78.375 69.0771 73.0714 73.0714 71.8929C77.0656 70.7143 78.3756 68.1607 78.5714 66C78.5714 66 75.8909 65.7643 73.0714 63.6429C69.5471 60.9911 68.3571 53.5268 68.3571 50.2857C68.3571 47.0446 71.4577 25.1429 88.7857 27.5C103.965 29.5648 101.54 48.9107 97.4285 56.5714C94.1392 62.7 86.9104 64.7232 84.0714 65.2143C84.1693 66.0982 83.9981 67.0018 85.6428 69.8304C87.6987 73.3661 93.8218 76.3125 96.4651 81.6161C98.5797 85.8589 98.3096 97.4286 97.4285 101.652C94.3937 102.339 86.4795 104.304 79.4308 104.304C72.3821 104.304 64.4524 102.339 61.8091 101.652L60.6343 106.857C55.8373 107.446 43.2685 107.25 35.75 107.25C28.2314 107.25 16.1886 104.795 11 103.714C9.82139 101.652 8.64282 94.6786 8.64282 89.9643C8.64282 84.0714 9.83657 75.0357 14.5357 69.1429C19.2348 63.25 26.1382 63.9375 30.25 63.0536C33.5393 62.3464 34.1785 59.4196 34.1785 58.0446C33.1017 57.4554 31.1051 56.4143 28.2857 55C24.7613 53.2321 17.7777 50.0893 18.0714 33Z" fill="white"/>
<path fill-rule="evenodd" clip-rule="evenodd" d="M27.5 12.1786C24.2667 16.102 20.0762 22.6505 19.25 26.7143C18.6266 29.7764 17.896 33.3872 17.6786 36.5358C17.364 41.0887 19.133 43.4644 20.4286 46.859C22.9861 53.5592 30.3474 56.5715 35.7673 57.3572C36.7122 57.4942 38.8929 57.3572 40.0714 57.3572C47.1429 57.3572 51.8572 52.25 51.8572 52.25C44.0594 54.5309 34.1692 52.5096 29.6423 45.3483C28.1755 43.0282 26.5774 36.853 26.5788 33.513C26.5821 26.736 29.0528 20.7143 32.6184 15.15C37.0131 7.46432 38.8929 8.25003 43.2143 5.89288C43.2143 5.89288 35.8543 2.04117 27.5 12.1786ZM69.1429 45.5714C68.1494 49.8419 68.603 54.8085 69.9286 58.9286C71.1279 62.6562 73.3531 64.5329 77.3929 65.6072C81.3153 66.6502 93.1072 64.4286 95.0714 58.1429C93.5 58.9286 87.6072 60.0948 84.3786 60.0948C80.1429 60.0948 77.0136 57.3572 75.8244 53.556C75.1545 51.4149 75.0615 50.606 75.0539 46.859C75.0462 43.112 75.5112 41.8289 76.2143 39.2857C77.4096 34.9624 79.75 32.2143 81.7989 30.708C82.5 30.1926 84.8572 28.6786 84.8572 28.6786C76.3214 26.2287 70.536 39.5804 69.1429 45.5714ZM37.0131 58.4401C34.2663 59.6363 33.3116 62.3307 30.1559 63.1741C24.3819 64.7169 13.6677 69.0186 11.7857 75.1222C9.25376 83.3346 9.06163 89.1042 9.42857 95.4643C9.60474 98.5183 10.0349 101.66 11 102.929C12.1225 104.404 18.265 106.221 20.4286 105.679C20.0163 102.152 19.9887 98.6592 19.5247 94.9127C18.7943 89.0134 19.7334 81.7231 22.0738 75.1222C22.9274 72.7146 32.9398 73.9945 35.7673 73.1152C38.5918 72.237 42.1561 70.1321 44 68.3572C45.2626 67.1419 45.1196 67.1153 45.1196 65.9374C38.5 62.0715 38.8929 57.3572 37.0131 58.4401ZM81.0464 66.5734C79.6236 66.9827 77.809 70.3941 70.0774 73.874C65.6394 76.8601 62.9309 78.0675 62.1627 81.5626C62.0579 82.039 61.9879 82.8502 62.1627 85.1489C62.3375 87.4478 62.4485 90.7172 62.4087 92.4145C62.2981 97.1696 61.2274 101.649 63.6429 102.143C64.2547 102.268 67.052 102.718 67.5714 102.929C68.8844 103.461 70.3876 104.05 71.1072 102.536C71.8421 100.989 71.6505 90.503 70.7169 86.6228C70.3587 85.1348 70.1462 83.597 70.2448 83.2056C70.5265 82.0843 71.7364 81.5212 74.7996 81.0859C78.1983 80.603 80.2002 80.0317 81.9858 79.035C83.9189 77.9561 85.9517 75.9572 86.1633 74.9271C86.2631 74.4422 86.7769 72.7228 86.7769 72.7228L83.0498 67.2605C83.0498 67.2605 82.0845 66.2748 81.0464 66.5734Z" fill="black"/>
<path fill-rule="evenodd" clip-rule="evenodd" d="M38.3525 3.01494C29.3242 5.01324 21.8749 14.3251 18.3379 22.8909C16.3795 27.6343 15.928 29.9124 15.922 35.0744C15.9164 40.0569 16.4347 43.0564 17.8207 46.0663C19.2585 49.1893 21.3689 51.7011 23.8051 54.1832C25.3065 55.7128 28.1402 57.5148 30.259 58.2866C31.2067 58.6323 31.9822 59.0092 31.9822 59.1246C31.9822 60.7967 26.675 61.3154 25.9279 61.4869C17.5502 63.4102 14.2954 65.6175 10.6876 71.8232C9.40731 74.0252 7.92652 78.8663 7.43715 82.4494C6.96521 85.9068 6.94483 97.2458 7.40614 99.8214C7.788 101.953 8.78593 104.21 9.661 104.921C10.8199 105.863 15.9277 107.106 22.2362 107.98C34.0709 109.621 46.3812 109.453 58.2668 108.48C60.2972 108.313 61.9821 108.167 62.0113 108.153C62.5668 107.9 63.0051 106.87 63.1672 105.438L63.3698 103.647L64.2886 103.832C66.7354 104.324 73.575 105.238 76.9011 105.518C83.1084 106.04 92.2814 105.199 97.2264 103.655L99.2214 102.929L99.5893 100.449C100.169 96.25 100.537 93.1547 100.169 89.0908C99.6872 83.7622 97.7763 78.6889 93.8842 74.9225C92.5422 73.6238 91.0561 72.3619 90.5817 72.1184C89.3403 71.4806 88.0744 70.558 87.0909 69.5607C85.9041 68.3571 85.8896 66.8027 86.2495 66.7962C86.9004 66.7843 89.518 65.4809 91.6393 64.1119C92.5327 63.5351 94.2158 62.1097 95.3797 60.9441C98.5288 57.7899 100.379 54.8278 101.841 50.598C103.849 44.7902 103.115 36.9059 99.318 31.8682C97.0164 28.8159 93.8249 26.5356 90.046 25.7729C84.6629 24.687 78.2093 27.0477 74.412 30.942C72.1991 33.2113 69.7777 37.2445 68.9185 40.0923C67.3223 45.3781 66.1348 51.0772 67.4504 56.5469C68.8078 62.1888 71.1311 65.3427 75.0357 66.7962C75.6917 67.0403 76.6071 67.1786 76.6071 67.1786C76.3469 67.6647 73.3967 69.8668 69.9711 71.3616C69.0178 71.7775 67.6755 72.4832 66.9879 72.9298C63.5828 75.1417 62.0113 77.4314 62.0113 77.4314C62.0113 77.4314 61.768 76.8499 61.5987 76.5486C60.7479 75.0347 59.1123 72.9398 57.794 71.6756C55.4311 69.4091 52.7274 67.7246 49.8498 66.2034C48.1831 65.3221 46.5998 64.2955 44.9092 63.4654C43.053 62.5536 42.0235 61.4792 42.0235 60.4532C42.0235 59.9136 42.3129 59.6946 43.5669 59.2846C51.8422 56.5793 58.786 49.6755 61.2154 41.273C62.8062 35.7644 63.2807 29.6989 62.2739 24.0055C61.4629 19.4194 59.7573 14.209 58.2993 11.8651C55.8096 7.86276 51.5096 4.19122 46.8758 3.01494C44.6815 2.4579 43.5415 1.86642 38.3525 3.01494ZM47.9286 7.46429C58.0973 11.9888 60.2244 31.1245 57.794 40.0923C55.6978 47.8276 48.6748 55.1789 40.4643 55.7857C34.3733 56.2356 29.5345 54.2038 25.5357 50.2857C19.7064 44.5748 17.9012 33.4712 21.2143 25.7729C22.905 21.8444 25.9279 15.7143 29.0714 12.9643C34.7417 8.00383 40.537 4.17548 47.9286 7.46429ZM94.2857 31.8682C101.694 38.7768 98.9376 56.1265 90.5817 60.9441C87.51 62.7151 85.5127 63.241 84.0714 63.6429C82.0696 64.2013 77.9101 64.1641 76.6071 63.6429C73.0758 62.2308 71.1472 59.2133 70.3214 53.4286C69.7482 49.4131 71.0239 42.8189 73.0714 38.8929C73.8378 37.4229 74.7231 34.5757 77.7857 32.2143C82.7274 28.404 89.6678 27.5604 94.2857 31.8682ZM37.9946 60.5329C38.4771 62.2467 39.9602 64.4296 41.25 65.6072C42.1026 66.3855 44.8916 67.0731 49.1071 69.9286C50.7235 71.0237 53.4286 72.5214 54.6071 73.4643C56.5714 75.0357 58.1462 79.4306 58.5357 80.5357C59.9113 84.4424 59.7115 88.251 59.7143 92.4852C59.7169 97.0763 59.8131 104.029 59.3214 104.5C59.3214 104.5 55.7231 104.728 53.8214 104.921C42.8214 105.59 32.461 104.914 20.8214 103.832C18.2396 103.592 12.1786 101.357 12.1786 101.357C11.5781 100.859 10.6953 97.4896 10.6876 91.1429C10.6775 83.0832 11.7701 78.404 13.75 74.25C15.3897 70.8107 17.917 68.3309 20.4286 67.1786C21.9346 66.4873 24.3065 65.5728 25.9359 65.2143C31.2897 64.036 32.6071 63.8346 33.3928 62.8572C34.0456 62.0451 35.0196 61.1308 35.3571 60.1072C35.7496 58.9164 37.7273 59.5848 37.9946 60.5329ZM82.5 67.5714C82.5 67.5714 82.8928 69.2813 83.2857 70.3214C83.6786 71.3616 85.7662 72.5682 87.6071 74.25C90.3645 76.769 93.8369 78.8416 95.0714 82.4494C95.8071 84.5997 96.5433 87.233 96.6428 91.1429C96.7209 94.2111 96.2355 97.4223 95.8571 100.449L91.1428 101.357C87.8348 101.964 73.306 101.981 69.9711 101.357C68.5092 101.084 66.7179 100.565 66 100.449L63.6428 99.8214L64.0357 92.4852C63.9959 89.1828 64.2886 85.25 63.25 82.5C63.25 82.5 66.3708 76.4939 70.8828 74.9225C73.9773 73.4962 77 72.2857 78.9643 69.9286C79.3571 69.4572 80.1428 67.9635 80.1428 67.9635L82.5 67.5714Z" fill="#323239"/>
</g>
<defs>
<clipPath id="clip0">
<rect width="110" height="110" fill="white"/>
</clipPath>
</defs>
</svg>
